<svg id="my-svg" width="100%" xmlns="http://www.w3.org/2000/svg" xmlns:xlink="http://www.w3.org/1999/xlink" class="statediagram" style="max-width: 1237.02px; background-color: white;" viewBox="0 0 1237.015625 352.5" role="graphics-document document" aria-roledescription="stateDiagram"><style>#my-svg{font-family:"trebuchet ms",verdana,arial,sans-serif;font-size:16px;fill:#000000;}#my-svg .error-icon{fill:#552222;}#my-svg .error-text{fill:#552222;stroke:#552222;}#my-svg .edge-thickness-normal{stroke-width:2px;}#my-svg .edge-thickness-thick{stroke-width:3.5px;}#my-svg .edge-pattern-solid{stroke-dasharray:0;}#my-svg .edge-pattern-dashed{stroke-dasharray:3;}#my-svg .edge-pattern-dotted{stroke-dasharray:2;}#my-svg .marker{fill:#666;stroke:#666;}#my-svg .marker.cross{stroke:#666;}#my-svg svg{font-family:"trebuchet ms",verdana,arial,sans-serif;font-size:16px;}#my-svg defs #statediagram-barbEnd{fill:#000;stroke:#000;}#my-svg g.stateGroup text{fill:#999;stroke:none;font-size:10px;}#my-svg g.stateGroup text{fill:#000000;stroke:none;font-size:10px;}#my-svg g.stateGroup .state-title{font-weight:bolder;fill:#111111;}#my-svg g.stateGroup rect{fill:#eee;stroke:#999;}#my-svg g.stateGroup line{stroke:#666;stroke-width:1;}#my-svg .transition{stroke:#000;stroke-width:1;fill:none;}#my-svg .stateGroup .composit{fill:#ffffff;border-bottom:1px;}#my-svg .stateGroup .alt-composit{fill:#e0e0e0;border-bottom:1px;}#my-svg .state-note{stroke:#999;fill:#666;}#my-svg .state-note text{fill:#fff;stroke:none;font-size:10px;}#my-svg .stateLabel .box{stroke:none;stroke-width:0;fill:#eee;opacity:0.5;}#my-svg .edgeLabel .label rect{fill:#eee;opacity:0.5;}#my-svg .edgeLabel .label text{fill:#000000;}#my-svg .label div .edgeLabel{color:#000000;}#my-svg .stateLabel text{fill:#111111;font-size:10px;font-weight:bold;}#my-svg .node circle.state-start{fill:#222;stroke:#222;}#my-svg .node .fork-join{fill:#222;stroke:#222;}#my-svg .node circle.state-end{fill:hsl(0, 0%, 83.3333333333%);stroke:#ffffff;stroke-width:1.5;}#my-svg .end-state-inner{fill:#ffffff;stroke-width:1.5;}#my-svg .node rect{fill:#eee;stroke:#000;stroke-width:1px;}#my-svg .node polygon{fill:#eee;stroke:#000;stroke-width:1px;}#my-svg #statediagram-barbEnd{fill:#666;}#my-svg .statediagram-cluster rect{fill:#eee;stroke:#000;stroke-width:1px;}#my-svg .cluster-label,#my-svg .nodeLabel{color:#111111;}#my-svg .statediagram-cluster rect.outer{rx:5px;ry:5px;}#my-svg .statediagram-state .divider{stroke:#000;}#my-svg .statediagram-state .title-state{rx:5px;ry:5px;}#my-svg .statediagram-cluster.statediagram-cluster .inner{fill:#ffffff;}#my-svg .statediagram-cluster.statediagram-cluster-alt .inner{fill:#f4f4f4;}#my-svg .statediagram-cluster .inner{rx:0;ry:0;}#my-svg .statediagram-state rect.basic{rx:5px;ry:5px;}#my-svg .statediagram-state rect.divider{stroke-dasharray:10,10;fill:#f4f4f4;}#my-svg .note-edge{stroke-dasharray:5;}#my-svg .statediagram-note rect{fill:#666;stroke:#999;stroke-width:1px;rx:0;ry:0;}#my-svg .statediagram-note rect{fill:#666;stroke:#999;stroke-width:1px;rx:0;ry:0;}#my-svg .statediagram-note text{fill:#fff;}#my-svg .statediagram-note .nodeLabel{color:#fff;}#my-svg .statediagram .edgeLabel{color:red;}#my-svg #dependencyStart,#my-svg #dependencyEnd{fill:#666;stroke:#666;stroke-width:1;}#my-svg .statediagramTitleText{text-anchor:middle;font-size:18px;fill:#000000;}#my-svg :root{--mermaid-font-family:"trebuchet ms",verdana,arial,sans-serif;}#my-svg .terminal&gt;*{fill:rgb(212, 237, 218)!important;stroke:rgb(40, 167, 69)!important;color:rgb(21, 87, 36)!important;}#my-svg .terminal span{fill:rgb(212, 237, 218)!important;stroke:rgb(40, 167, 69)!important;color:rgb(21, 87, 36)!important;}#my-svg .terminal tspan{fill:rgb(21, 87, 36)!important;}#my-svg .failed&gt;*{fill:rgb(248, 215, 218)!important;stroke:rgb(220, 53, 69)!important;color:rgb(114, 28, 36)!important;}#my-svg .failed span{fill:rgb(248, 215, 218)!important;stroke:rgb(220, 53, 69)!important;color:rgb(114, 28, 36)!important;}#my-svg .failed tspan{fill:rgb(114, 28, 36)!important;}#my-svg .running&gt;*{fill:rgb(204, 229, 255)!important;stroke:rgb(0, 123, 255)!important;color:rgb(0, 64, 133)!important;}#my-svg .running span{fill:rgb(204, 229, 255)!important;stroke:rgb(0, 123, 255)!important;color:rgb(0, 64, 133)!important;}#my-svg .running tspan{fill:rgb(0, 64, 133)!important;}#my-svg .pending&gt;*{fill:rgb(255, 243, 205)!important;stroke:rgb(255, 193, 7)!important;color:rgb(133, 100, 4)!important;}#my-svg .pending span{fill:rgb(255, 243, 205)!important;stroke:rgb(255, 193, 7)!important;color:rgb(133, 100, 4)!important;}#my-svg .pending tspan{fill:rgb(133, 100, 4)!important;}</style><g><defs><marker id="my-svg_statediagram-barbEnd" refX="19" refY="7" markerWidth="20" markerHeight="14" markerUnits="strokeWidth" orient="auto"><path d="M 19,7 L9,13 L14,7 L9,1 Z"/></marker></defs><g class="root"><g class="clusters"/><g class="edgePaths"><path d="M22,155.5L33.626,155.5C45.253,155.5,68.505,155.5,91.758,155.5C115.01,155.5,138.263,155.5,149.889,155.5L161.516,155.5" id="edge0" class="edge-thickness-normal transition" style="fill:none" marker-end="url(#my-svg_statediagram-barbEnd)"/><path d="M233.453,141.637L246.81,136.489C260.167,131.341,286.88,121.046,313.594,115.898C340.307,110.75,367.021,110.75,380.378,110.75L393.734,110.75" id="edge1" class="edge-thickness-normal transition" style="fill:none" marker-end="url(#my-svg_statediagram-barbEnd)"/><path d="M223.028,172L238.123,181.75C253.217,191.5,283.405,211,318.888,220.75C354.37,230.5,395.146,230.5,436.664,230.5C478.182,230.5,520.443,230.5,569.754,230.5C619.065,230.5,675.427,230.5,738.829,230.5C802.232,230.5,872.674,230.5,929.777,232.32C986.88,234.139,1030.643,237.778,1052.525,239.598L1074.406,241.418" id="edge2" class="edge-thickness-normal transition" style="fill:none" marker-end="url(#my-svg_statediagram-barbEnd)"/><path d="M478.109,120.816L492.208,124.18C506.307,127.544,534.505,134.272,570.568,137.636C606.63,141,650.557,141,672.521,141L694.484,141" id="edge3" class="edge-thickness-normal transition" style="fill:none" marker-end="url(#my-svg_statediagram-barbEnd)"/><path d="M478.109,100.684L492.208,97.32C506.307,93.956,534.505,87.228,576.785,83.864C619.065,80.5,675.427,80.5,738.829,80.5C802.232,80.5,872.674,80.5,932.076,84.695C991.477,88.89,1039.836,97.279,1064.016,101.474L1088.195,105.669" id="edge4" class="edge-thickness-normal transition" style="fill:none" marker-end="url(#my-svg_statediagram-barbEnd)"/><path d="M718.359,157.5L714.38,162.389C710.401,167.278,702.443,177.056,698.464,183.167C694.484,189.278,694.484,191.722,700.702,194.167C706.919,196.611,719.354,199.056,731.789,199.056C744.224,199.056,756.659,196.611,762.876,194.167C769.094,191.722,769.094,189.278,765.115,183.167C761.135,177.056,753.177,167.278,749.198,162.389L745.219,157.5" id="edge5" class="edge-thickness-normal transition" style="fill:none" marker-end="url(#my-svg_statediagram-barbEnd)"/><path d="M761.72,124.5L791.953,107.833C822.185,91.167,882.651,57.833,934.024,41.167C985.396,24.5,1027.674,24.5,1048.814,24.5L1069.953,24.5" id="edge6" class="edge-thickness-normal transition" style="fill:none" marker-end="url(#my-svg_statediagram-barbEnd)"/><path d="M769.094,141L798.098,141C827.102,141,885.109,141,938.293,136.805C991.477,132.61,1039.836,124.221,1064.016,120.026L1088.195,115.831" id="edge7" class="edge-thickness-normal transition" style="fill:none" marker-end="url(#my-svg_statediagram-barbEnd)"/><path d="M759.354,157.5L789.981,175.833C820.608,194.167,881.863,230.833,934.371,246.343C986.88,261.853,1030.643,256.206,1052.525,253.382L1074.406,250.559" id="edge8" class="edge-thickness-normal transition" style="fill:none" marker-end="url(#my-svg_statediagram-barbEnd)"/><path d="M750.436,157.5L782.549,185.917C814.663,214.333,878.89,271.167,934.048,299.583C989.206,328,1035.294,328,1058.339,328L1081.383,328" id="edge9" class="edge-thickness-normal transition" style="fill:none" marker-end="url(#my-svg_statediagram-barbEnd)"/><path d="M1165.016,24.5L1169.182,24.5C1173.349,24.5,1181.682,24.5,1190.932,47.611C1200.181,70.721,1210.347,116.942,1215.429,140.053L1220.512,163.163" id="edge10" class="edge-thickness-normal transition" style="fill:none" marker-end="url(#my-svg_statediagram-barbEnd)"/><path d="M1146.773,110.75L1153.98,110.75C1161.188,110.75,1175.602,110.75,1187.588,119.598C1199.573,128.447,1209.131,146.144,1213.91,154.992L1218.689,163.841" id="edge11" class="edge-thickness-normal transition" style="fill:none" marker-end="url(#my-svg_statediagram-barbEnd)"/><path d="M1160.563,245L1165.471,245C1170.38,245,1180.198,245,1189.982,233.573C1199.767,222.146,1209.518,199.292,1214.393,187.865L1219.269,176.438" id="edge12" class="edge-thickness-normal transition" style="fill:none" marker-end="url(#my-svg_statediagram-barbEnd)"/><path d="M1153.586,328L1159.658,328C1165.729,328,1177.872,328,1189.046,302.81C1200.219,277.62,1210.423,227.24,1215.524,202.051L1220.626,176.861" id="edge13" class="edge-thickness-normal transition" style="fill:none" marker-end="url(#my-svg_statediagram-barbEnd)"/></g><g class="edgeLabels"><g class="edgeLabel" transform="translate(91.7578125, 155.5)"><g class="label" transform="translate(-44.7578125, -9)"><rect rx="0" ry="0" width="89.515625" height="18"/><foreignObject width="89.515625" height="18"><div xmlns="http://www.w3.org/1999/xhtml" style="display: inline-block; white-space: nowrap;"><span class="edgeLabel">POST /tasks</span></div></foreignObject></g></g><g class="edgeLabel" transform="translate(313.59375, 110.75)"><g class="label" transform="translate(-55.140625, -9)"><rect rx="0" ry="0" width="110.28125" height="18"/><foreignObject width="110.28125" height="18"><div xmlns="http://www.w3.org/1999/xhtml" style="display: inline-block; white-space: nowrap;"><span class="edgeLabel">scheduler picks</span></div></foreignObject></g></g><g class="edgeLabel" transform="translate(562.703125, 230.5)"><g class="label" transform="translate(-40.9140625, -9)"><rect rx="0" ry="0" width="81.828125" height="18"/><foreignObject width="81.828125" height="18"><div xmlns="http://www.w3.org/1999/xhtml" style="display: inline-block; white-space: nowrap;"><span class="edgeLabel">user cancel</span></div></foreignObject></g></g><g class="edgeLabel" transform="translate(562.703125, 141)"><g class="label" transform="translate(-59.59375, -9)"><rect rx="0" ry="0" width="119.1875" height="18"/><foreignObject width="119.1875" height="18"><div xmlns="http://www.w3.org/1999/xhtml" style="display: inline-block; white-space: nowrap;"><span class="edgeLabel">container started</span></div></foreignObject></g></g><g class="edgeLabel" transform="translate(731.7890625, 80.5)"><g class="label" transform="translate(-53.796875, -9)"><rect rx="0" ry="0" width="107.59375" height="18"/><foreignObject width="107.59375" height="18"><div xmlns="http://www.w3.org/1999/xhtml" style="display: inline-block; white-space: nowrap;"><span class="edgeLabel">pull / start error</span></div></foreignObject></g></g><g class="edgeLabel" transform="translate(731.7890625, 201.5)"><g class="label" transform="translate(-84.4921875, -9)"><rect rx="0" ry="0" width="168.984375" height="18"/><foreignObject width="168.984375" height="18"><div xmlns="http://www.w3.org/1999/xhtml" style="display: inline-block; white-space: nowrap;"><span class="edgeLabel">tool_use / llm_response</span></div></foreignObject></g></g><g class="edgeLabel" transform="translate(943.1171875, 24.5)"><g class="label" transform="translate(-64.0390625, -9)"><rect rx="0" ry="0" width="128.078125" height="18"/><foreignObject width="128.078125" height="18"><div xmlns="http://www.w3.org/1999/xhtml" style="display: inline-block; white-space: nowrap;"><span class="edgeLabel">agent returns final</span></div></foreignObject></g></g><g class="edgeLabel" transform="translate(943.1171875, 141)"><g class="label" transform="translate(-101.8359375, -9)"><rect rx="0" ry="0" width="203.671875" height="18"/><foreignObject width="203.671875" height="18"><div xmlns="http://www.w3.org/1999/xhtml" style="display: inline-block; white-space: nowrap;"><span class="edgeLabel">unhandled error / max_steps</span></div></foreignObject></g></g><g class="edgeLabel" transform="translate(943.1171875, 267.5)"><g class="label" transform="translate(-76.921875, -9)"><rect rx="0" ry="0" width="153.84375" height="18"/><foreignObject width="153.84375" height="18"><div xmlns="http://www.w3.org/1999/xhtml" style="display: inline-block; white-space: nowrap;"><span class="edgeLabel">user cancel (graceful)</span></div></foreignObject></g></g><g class="edgeLabel" transform="translate(943.1171875, 328)"><g class="label" transform="translate(-59.796875, -9)"><rect rx="0" ry="0" width="119.59375" height="18"/><foreignObject width="119.59375" height="18"><div xmlns="http://www.w3.org/1999/xhtml" style="display: inline-block; white-space: nowrap;"><span class="edgeLabel">wall_clock &gt; limit</span></div></foreignObject></g></g><g class="edgeLabel"><g class="label" transform="translate(0, 0)"><rect rx="0" ry="0" width="0" height="0"/><foreignObject width="0" height="0"><div xmlns="http://www.w3.org/1999/xhtml" style="display: inline-block; white-space: nowrap;"><span class="edgeLabel"></span></div></foreignObject></g></g><g class="edgeLabel"><g class="label" transform="translate(0, 0)"><rect rx="0" ry="0" width="0" height="0"/><foreignObject width="0" height="0"><div xmlns="http://www.w3.org/1999/xhtml" style="display: inline-block; white-space: nowrap;"><span class="edgeLabel"></span></div></foreignObject></g></g><g class="edgeLabel"><g class="label" transform="translate(0, 0)"><rect rx="0" ry="0" width="0" height="0"/><foreignObject width="0" height="0"><div xmlns="http://www.w3.org/1999/xhtml" style="display: inline-block; white-space: nowrap;"><span class="edgeLabel"></span></div></foreignObject></g></g><g class="edgeLabel"><g class="label" transform="translate(0, 0)"><rect rx="0" ry="0" width="0" height="0"/><foreignObject width="0" height="0"><div xmlns="http://www.w3.org/1999/xhtml" style="display: inline-block; white-space: nowrap;"><span class="edgeLabel"></span></div></foreignObject></g></g></g><g class="nodes"><g class="node default" id="state-root_start-0" data-node="true" data-id="root_start" transform="translate(15, 155.5)"><circle class="state-start" r="7" width="14" height="14"/></g><g class="node pending statediagram-state undefined" id="state-Queued-2" data-node="true" data-id="Queued" transform="translate(197.484375, 155.5)"><rect class="basic label-container" style="" x="-35.96875" y="-16.5" width="71.9375" height="33"/><g class="label" style="" transform="translate(-28.46875, -9)"><rect/><foreignObject width="56.9375" height="18"><div xmlns="http://www.w3.org/1999/xhtml" style="display: inline-block; white-space: nowrap;"><span class="nodeLabel">Queued</span></div></foreignObject></g></g><g class="node pending statediagram-state undefined" id="state-Preparing-4" data-node="true" data-id="Preparing" transform="translate(435.921875, 110.75)"><rect class="basic label-container" style="" x="-42.1875" y="-16.5" width="84.375" height="33"/><g class="label" style="" transform="translate(-34.6875, -9)"><rect/><foreignObject width="69.375" height="18"><div xmlns="http://www.w3.org/1999/xhtml" style="display: inline-block; white-space: nowrap;"><span class="nodeLabel">Preparing</span></div></foreignObject></g></g><g class="node failed statediagram-state undefined" id="state-Cancelled-12" data-node="true" data-id="Cancelled" transform="translate(1117.484375, 245)"><rect class="basic label-container" style="" x="-43.078125" y="-16.5" width="86.15625" height="33"/><g class="label" style="" transform="translate(-35.578125, -9)"><rect/><foreignObject width="71.15625" height="18"><div xmlns="http://www.w3.org/1999/xhtml" style="display: inline-block; white-space: nowrap;"><span class="nodeLabel">Cancelled</span></div></foreignObject></g></g><g class="node running statediagram-state undefined" id="state-Running-9" data-node="true" data-id="Running" transform="translate(731.7890625, 141)"><rect class="basic label-container" style="" x="-37.3046875" y="-16.5" width="74.609375" height="33"/><g class="label" style="" transform="translate(-29.8046875, -9)"><rect/><foreignObject width="59.609375" height="18"><div xmlns="http://www.w3.org/1999/xhtml" style="display: inline-block; white-space: nowrap;"><span class="nodeLabel">Running</span></div></foreignObject></g></g><g class="node failed statediagram-state undefined" id="state-Failed-11" data-node="true" data-id="Failed" transform="translate(1117.484375, 110.75)"><rect class="basic label-container" style="" x="-29.2890625" y="-16.5" width="58.578125" height="33"/><g class="label" style="" transform="translate(-21.7890625, -9)"><rect/><foreignObject width="43.578125" height="18"><div xmlns="http://www.w3.org/1999/xhtml" style="display: inline-block; white-space: nowrap;"><span class="nodeLabel">Failed</span></div></foreignObject></g></g><g class="node terminal statediagram-state undefined" id="state-Succeeded-10" data-node="true" data-id="Succeeded" transform="translate(1117.484375, 24.5)"><rect class="basic label-container" style="" x="-47.53125" y="-16.5" width="95.0625" height="33"/><g class="label" style="" transform="translate(-40.03125, -9)"><rect/><foreignObject width="80.0625" height="18"><div xmlns="http://www.w3.org/1999/xhtml" style="display: inline-block; white-space: nowrap;"><span class="nodeLabel">Succeeded</span></div></foreignObject></g></g><g class="node failed statediagram-state undefined" id="state-Timeout-13" data-node="true" data-id="Timeout" transform="translate(1117.484375, 328)"><rect class="basic label-container" style="" x="-36.1015625" y="-16.5" width="72.203125" height="33"/><g class="label" style="" transform="translate(-28.6015625, -9)"><rect/><foreignObject width="57.203125" height="18"><div xmlns="http://www.w3.org/1999/xhtml" style="display: inline-block; white-space: nowrap;"><span class="nodeLabel">Timeout</span></div></foreignObject></g></g><g class="node default" id="state-root_end-13" data-node="true" data-id="root_end" transform="translate(1222.015625, 170)"><circle class="state-start" r="7" width="14" height="14"/><circle class="state-end" r="5" width="10" height="10"/></g></g></g></g></svg>